<?xml version="1.0"?>
<svg xmlns="http://www.w3.org/2000/svg" xmlns:xlink="http://www.w3.org/1999/xlink" xmlns:svgjs="http://svgjs.com/svgjs" version="1.1" width="512" height="512" x="0" y="0" viewBox="0 0 64 64" style="enable-background:new 0 0 512 512" xml:space="preserve" class=""><g><path xmlns="http://www.w3.org/2000/svg" d="M17,27A10,10,0,1,0,7,17,10.011,10.011,0,0,0,17,27ZM17,9a8,8,0,1,1-8,8A8.009,8.009,0,0,1,17,9Z" fill="#f2a209" data-original="#000000" style="" class=""/><path xmlns="http://www.w3.org/2000/svg" d="M16,23v1h2V23a3,3,0,0,0,3-3V19a3,3,0,0,0-3-3V13a1,1,0,0,1,1,1v1h2V14a3,3,0,0,0-3-3V10H16v1a3,3,0,0,0-3,3v1a3,3,0,0,0,3,3v3a1,1,0,0,1-1-1V19H13v1A3,3,0,0,0,16,23Zm-1-8V14a1,1,0,0,1,1-1v3A1,1,0,0,1,15,15Zm3,3a1,1,0,0,1,1,1v1a1,1,0,0,1-1,1Z" fill="#f2a209" data-original="#000000" style="" class=""/><rect xmlns="http://www.w3.org/2000/svg" x="29" y="19" width="16" height="2" fill="#f2a209" data-original="#000000" style="" class=""/><rect xmlns="http://www.w3.org/2000/svg" x="21" y="55" width="20" height="2" fill="#f2a209" data-original="#000000" style="" class=""/><path xmlns="http://www.w3.org/2000/svg" d="M38,28A10,10,0,1,0,48,38,10.011,10.011,0,0,0,38,28Zm0,18a7.957,7.957,0,0,1-5.274-2H42V42H31.082a7.963,7.963,0,0,1-.819-2H42V38H30a7.953,7.953,0,0,1,.263-2H42V34H31.082A8,8,0,1,1,38,46Z" fill="#f2a209" data-original="#000000" style="" class=""/><path xmlns="http://www.w3.org/2000/svg" d="M61.878,56.465l-7.6-7.6a3.945,3.945,0,0,0-.691-4.691L52.2,42.788A14.874,14.874,0,0,0,49,27.836V14a1,1,0,0,0-.293-.707l-12-12A1,1,0,0,0,36,1H2A1,1,0,0,0,1,2V62a1,1,0,0,0,1,1H48a1,1,0,0,0,1-1V54.414l7.465,7.465a3.828,3.828,0,1,0,5.413-5.414ZM52.172,45.586a2,2,0,0,1,0,2.828l-3.758,3.758a2,2,0,0,1-2.828,0l-.808-.808a15.089,15.089,0,0,0,6.586-6.586ZM38,51A13,13,0,1,1,51,38,13.015,13.015,0,0,1,38,51ZM37,4.414,45.586,13H37ZM47,61H3V3H35V14a1,1,0,0,0,1,1H47V26.028A14.934,14.934,0,0,0,25.333,30H5v2H24.261a14.983,14.983,0,0,0-.7,2H5v2H23.149A14.99,14.99,0,0,0,23,38H5v2H23.149a15.014,15.014,0,0,0,.409,2H5v2H24.261a14.941,14.941,0,0,0,18.527,8.2l1.384,1.384A3.99,3.99,0,0,0,47,54.755Zm12.171,0a1.819,1.819,0,0,1-1.293-.535L50.414,53,53,50.414l7.465,7.465A1.829,1.829,0,0,1,59.171,61Z" fill="#f2a209" data-original="#000000" style="" class=""/></g></svg>
