<?xml version="1.0"?>
<svg xmlns="http://www.w3.org/2000/svg" xmlns:xlink="http://www.w3.org/1999/xlink" xmlns:svgjs="http://svgjs.com/svgjs" version="1.1" width="512" height="512" x="0" y="0" viewBox="0 0 512 512" style="enable-background:new 0 0 512 512" xml:space="preserve" class=""><g><g xmlns="http://www.w3.org/2000/svg"><path d="m362 40h-76v-10c0-16.542-13.458-30-30-30s-30 13.458-30 30v10h-76c-82.71 0-150 67.29-150 150 0 5.522 4.477 10 10 10h216v232c0 44.112 35.888 80 80 80 32.41 0 61.468-19.449 74.028-49.549.013-.029.024-.059.036-.088 7.937-19.536-7.512-40.363-28.264-40.363-12.055 0-22.991 7.067-27.248 17.598-3.179 7.536-10.454 12.402-18.552 12.402-11.028 0-20-8.972-20-20 0-8.984 0-219.695 0-232h216c5.522 0 10-4.478 10-10 0-82.71-67.29-150-150-150zm-116-10c0-5.514 4.486-10 10-10s10 4.486 10 10v10h-20zm0 362v-192h20v192zm-225.619-212c5.123-67.027 61.301-120.01 129.619-120.01l22.137.01c-27.894 19.76-46.137 52.26-46.137 88.995v1.005c0 5.522 4.477 10 10 10s10-4.478 10-10v-1.005c0-49.072 39.923-88.995 88.995-88.995h11.005v90c0 5.522 4.478 10 10 10s10-4.478 10-10v-90h11.005c49.072 0 88.995 39.923 88.995 88.995v1.005c0 5.522 4.478 10 10 10s10-4.478 10-10v-1.005c0-36.709-18.243-69.235-46.136-88.995h22.136c68.317 0 124.496 52.973 129.619 120z" fill="#f2a209" data-original="#000000" style="" class=""/></g></g></svg>
