<?xml version="1.0"?>
<svg xmlns="http://www.w3.org/2000/svg" xmlns:xlink="http://www.w3.org/1999/xlink" xmlns:svgjs="http://svgjs.com/svgjs" version="1.1" width="512" height="512" x="0" y="0" viewBox="0 0 512 512" style="enable-background:new 0 0 512 512" xml:space="preserve" class=""><g><g xmlns="http://www.w3.org/2000/svg"><path d="m502 286h-12.953l-42.869-120.032c1.908.019 3.839.032 5.822.032 22.056 0 40-17.944 40-40s-17.944-40-40-40c-13.852 0-26.542 7.267-33.753 18.738-17.972-1.506-30.737-4.194-45.305-7.263-21.647-4.57-48.512-9.218-86.942-10.857v-20.438l14.472-7.236c2.876-1.438 4.885-4.17 5.399-7.343s-.527-6.399-2.8-8.673l-40-40c-3.906-3.904-10.236-3.904-14.143 0l-40 40c-2.273 2.273-3.314 5.5-2.8 8.673.515 3.173 2.524 5.905 5.399 7.343l14.473 7.236v20.438c-38.431 1.639-65.302 6.289-86.975 10.864-14.537 3.062-27.3 5.75-45.272 7.256-7.211-11.472-19.901-18.738-33.753-18.738-22.056 0-40 17.944-40 40s17.944 40 40 40c1.983 0 3.914-.013 5.821-.032l-42.868 120.032h-12.953c-5.523 0-10 4.478-10 10 0 38.598 31.402 70 70 70h20c38.598 0 70-31.402 70-70 0-5.522-4.477-10-10-10h-12.953l-43.245-121.086c25.176-1.728 43.002-5.261 60.4-8.71 19.726-3.911 39.978-7.926 71.798-9.505v225.301h-30c-4.589 0-8.588 3.123-9.701 7.574l-18.107 72.426h-32.192c-16.542 0-30 13.458-30 30v20c0 5.522 4.477 10 10 10h280c5.522 0 10-4.478 10-10v-20c0-16.542-13.458-30-30-30h-32.192l-18.106-72.426c-1.113-4.451-5.113-7.574-9.702-7.574h-30v-225.301c31.82 1.579 52.072 5.594 71.798 9.505 17.398 3.449 35.224 6.983 60.4 8.71l-43.245 121.086h-12.953c-5.522 0-10 4.478-10 10 0 38.598 31.402 70 70 70h20c38.598 0 70-31.402 70-70 0-5.523-4.478-10-10-10zm-246-261.858 23.118 23.118-7.59 3.795c-3.388 1.695-5.528 5.157-5.528 8.945v26.065c-3.258-.043-16.742-.043-20 0v-26.065c0-3.788-2.14-7.25-5.528-8.944l-7.59-3.795zm-140.19 261.858h-71.62l35.81-100.268zm260.19 186c5.514 0 10 4.486 10 10v10h-260v-10c0-5.514 4.486-10 10-10zm-67.808-80 15 60h-134.384l15-60zm-62.192-20v-225.927c3.228-.047 16.772-.047 20 0v225.927zm115.688-235.414c-26.249-5.204-53.389-10.586-105.688-10.586-52.298 0-79.44 5.382-105.688 10.586-24.416 4.841-47.479 9.414-90.312 9.414-11.028 0-20-8.972-20-20s8.972-20 20-20c8.164 0 15.529 5.102 18.521 12.759l.268.722c2.087 5.621 8.633 8.167 13.976 5.399 20.659-1.566 35.128-4.614 50.423-7.836 25.873-5.461 59.509-11.044 112.812-11.044s86.938 5.583 112.855 11.054c15.257 3.213 29.721 6.26 50.379 7.826 5.366 2.766 11.89.212 13.975-5.395l.277-.746c2.997-7.646 10.357-12.739 18.514-12.739 11.028 0 20 8.972 20 20s-8.972 20-20 20c-42.833 0-65.896-4.573-90.312-9.414zm70.312 49.146 35.81 100.268h-71.62z" fill="#f2a209" data-original="#000000" style="" class=""/><path d="m236 432h40c5.522 0 10-4.478 10-10s-4.478-10-10-10h-40c-5.523 0-10 4.478-10 10s4.477 10 10 10z" fill="#f2a209" data-original="#000000" style="" class=""/></g></g></svg>
