<?xml version="1.0"?>
<svg xmlns="http://www.w3.org/2000/svg" xmlns:xlink="http://www.w3.org/1999/xlink" xmlns:svgjs="http://svgjs.com/svgjs" version="1.1" width="512" height="512" x="0" y="0" viewBox="0 0 64 64" style="enable-background:new 0 0 512 512" xml:space="preserve" class=""><g><g xmlns="http://www.w3.org/2000/svg" id="Research"><path d="M31.5,12.742A13,13,0,1,0,49.259,17.5,13.016,13.016,0,0,0,31.5,12.742ZM47.526,18.5a11,11,0,1,1-20.51,5.344l4.236,3.96a3,3,0,1,0,5.344-.28l4.455-5.692A2.962,2.962,0,0,0,42,22a3,3,0,1,0-3-3,2.969,2.969,0,0,0,.474,1.6l-4.389,5.607a2.886,2.886,0,0,0-2.461.139l-5.3-4.953a10.99,10.99,0,0,1,20.2-2.9ZM35,29a1,1,0,1,1-1-1A1,1,0,0,1,35,29Zm6-10a1,1,0,1,1,1,1A1,1,0,0,1,41,19Z" fill="#f2a209" data-original="#000000" style="" class=""/><path d="M60.744,53.4,53.83,41.418a1,1,0,0,0-1.366-.366l-.866.5-2.641-4.573A16.97,16.97,0,0,0,48,10.26V3a1,1,0,0,0-1-1H13a1,1,0,0,0-.707.293l-10,10A1,1,0,0,0,2,13V61a1,1,0,0,0,1,1H47a1,1,0,0,0,1-1V51.321L52.084,58.4a5,5,0,1,0,8.66-5ZM49.866,42.552l-1.732,1-2.516-4.358c.3-.149.592-.3.882-.471s.562-.361.841-.544ZM50.99,16.5a15.048,15.048,0,1,1-9.108-6.989A15.017,15.017,0,0,1,50.99,16.5ZM12,5.414V12H5.414ZM46,60H4V14h9a1,1,0,0,0,1-1V4H46V9.013a17.074,17.074,0,0,0-3.6-1.434,16.949,16.949,0,0,0-19.844,9.367l-.807-.752a3,3,0,1,0-5.011.755l-5.21,9.1A3.058,3.058,0,0,0,11,26a3,3,0,1,0,3,3,2.973,2.973,0,0,0-.738-1.949l5.21-9.1A3.058,3.058,0,0,0,19,18a2.964,2.964,0,0,0,1.377-.35l1.414,1.316A16.956,16.956,0,0,0,33.6,40.421a17.109,17.109,0,0,0,4.427.586,16.8,16.8,0,0,0,5.74-1.018L46.4,44.553l-.865.5a1,1,0,0,0-.366,1.366L46,47.856ZM18,15a1,1,0,1,1,1,1A1,1,0,0,1,18,15ZM12,29a1,1,0,1,1-1-1A1,1,0,0,1,12,29ZM59.312,56.671a3,3,0,0,1-5.5.724L47.4,46.285l5.2-3L59.012,54.4A2.984,2.984,0,0,1,59.312,56.671Z" fill="#f2a209" data-original="#000000" style="" class=""/><path d="M41,56H40V47a1,1,0,0,0-1-1H35a1,1,0,0,0-1,1v9H32V43a1,1,0,0,0-1-1H27a1,1,0,0,0-1,1V56H24V47a1,1,0,0,0-1-1H19a1,1,0,0,0-1,1v9H16V51a1,1,0,0,0-1-1H11a1,1,0,0,0-1,1v5H9a1,1,0,0,0,0,2H41a1,1,0,0,0,0-2ZM12,56V52h2v4Zm8,0V48h2v8Zm8,0V44h2V56Zm8,0V48h2v8Z" fill="#f2a209" data-original="#000000" style="" class=""/><path d="M8,38H20a1,1,0,0,0,0-2H8a1,1,0,0,0,0,2Z" fill="#f2a209" data-original="#000000" style="" class=""/><path d="M20,42a1,1,0,0,0,0-2H8a1,1,0,0,0,0,2Z" fill="#f2a209" data-original="#000000" style="" class=""/></g></g></svg>
